<?xml version="1.0" encoding="UTF-8" standalone="no"?>
<!-- Created with Inkscape (http://www.inkscape.org/) -->

<svg
   width="512"
   height="512"
   viewBox="0 0 135.46666 135.46667"
   version="1.1"
   id="svg5"
   xml:space="preserve"
   inkscape:version="1.2.2 (b0a8486541, 2022-12-01)"
   sodipodi:docname="RRR_logo.svg"
   inkscape:export-filename="RRR_logo_256.png"
   inkscape:export-xdpi="48"
   inkscape:export-ydpi="48"
   xmlns:inkscape="http://www.inkscape.org/namespaces/inkscape"
   xmlns:sodipodi="http://sodipodi.sourceforge.net/DTD/sodipodi-0.dtd"
   xmlns:xlink="http://www.w3.org/1999/xlink"
   xmlns="http://www.w3.org/2000/svg"
   xmlns:svg="http://www.w3.org/2000/svg"><sodipodi:namedview
     id="namedview7"
     pagecolor="#ffffff"
     bordercolor="#666666"
     borderopacity="1.0"
     inkscape:showpageshadow="2"
     inkscape:pageopacity="0.0"
     inkscape:pagecheckerboard="0"
     inkscape:deskcolor="#d1d1d1"
     inkscape:document-units="mm"
     showgrid="false"
     inkscape:zoom="1.4449635"
     inkscape:cx="294.4711"
     inkscape:cy="302.08375"
     inkscape:window-width="1920"
     inkscape:window-height="1043"
     inkscape:window-x="0"
     inkscape:window-y="0"
     inkscape:window-maximized="1"
     inkscape:current-layer="layer1" /><defs
     id="defs2"><linearGradient
       inkscape:collect="always"
       id="linearGradient1183"><stop
         style="stop-color:#6699ff;stop-opacity:1;"
         offset="0"
         id="stop1179" /><stop
         style="stop-color:#1d3972;stop-opacity:1;"
         offset="1"
         id="stop1181" /></linearGradient><linearGradient
       inkscape:collect="always"
       xlink:href="#linearGradient1183"
       id="linearGradient3504"
       x1="3.5575638"
       y1="68.365555"
       x2="134.69691"
       y2="68.365555"
       gradientUnits="userSpaceOnUse"
       gradientTransform="matrix(1.26088,0,0,1.26088,-18.046969,-17.83835)" /></defs><g
     inkscape:label="Laag 1"
     inkscape:groupmode="layer"
     id="layer1"><path
       id="path3524"
       style="fill:url(#linearGradient3504);fill-opacity:1;stroke:none;stroke-width:0.352777;-inkscape-stroke:none;stop-color:#000000"
       d="M 39.849628,12.09774 V 55.988021 99.878302 H 77.550571 115.25151 V 57.72187 c 0,-23.185744 -0.15775,-42.566354 -0.34989,-43.067339 -0.96874,-2.524444 -1.47431,-2.556791 -39.292751,-2.556791 z m -3.960942,0.562312 c -3.608371,0 -9.816866,5.81597 -11.764236,11.020786 -1.124985,3.006768 -1.155249,4.125921 -1.155249,42.171419 V 104.9352 l 2.545064,-1.94301 c 1.399944,-1.06859 3.489223,-2.20521 4.642492,-2.52551 1.153269,-0.32029 3.172776,-0.58339 4.488067,-0.585121 l 2.391291,-0.0019 V 56.269503 c 0,-43.517397 -0.002,-43.609451 -1.147429,-43.609451 z m 41.546556,9.329943 c 13.19322,0 23.998258,10.194195 23.998258,22.831286 0,3.43117 -1.501888,7.709246 -3.644271,12.468592 -2.142387,4.759347 -4.97045,9.931221 -7.794825,14.726962 -5.648747,9.591485 -11.291192,17.69164 -11.291192,17.69164 l -1.26797,1.824418 -1.270578,-1.824418 c 0,0 -5.640489,-8.100154 -11.289236,-17.69164 -2.824375,-4.795741 -5.654397,-9.967615 -7.79678,-14.726962 -2.142382,-4.759346 -3.644275,-9.037422 -3.644275,-12.468592 0,-12.637089 10.807646,-22.831285 24.000869,-22.831286 z m 0,3.093039 c -11.608693,10e-7 -20.907829,8.864491 -20.907829,19.738247 0,2.446542 1.303541,6.607127 3.371264,11.200623 2.067725,4.593491 4.852599,9.690073 7.641704,14.425932 4.943959,8.39476 8.833231,13.963227 9.894861,15.504945 1.062059,-1.542348 4.951217,-7.110721 9.89486,-15.504945 2.789106,-4.735859 5.571371,-9.832441 7.639099,-14.425932 2.067724,-4.593496 3.373869,-8.754081 3.373869,-11.200623 0,-10.873757 -9.299134,-19.738247 -20.907828,-19.738247 z m 0,7.681451 c 6.915837,0 12.633441,5.370319 12.633441,12.056796 0,6.686478 -5.717604,12.057447 -12.633441,12.057447 -6.91584,2e-6 -12.636049,-5.370969 -12.636049,-12.057447 0,-6.686477 5.720209,-12.056796 12.636049,-12.056796 z m 0,3.09304 c -5.33131,0 -9.543008,4.040612 -9.543008,8.963756 0,4.923145 4.211698,8.964406 9.543008,8.964406 5.331311,0 9.540402,-4.041261 9.540402,-8.964406 0,-4.923144 -4.209091,-8.963756 -9.540402,-8.963756 z m -5.627678,66.834285 c -40.228136,0 -40.62859,0.009 -43.071247,1.19369 -3.418806,1.65504 -5.35448,4.73254 -5.663514,9.00481 -0.398979,5.51579 1.954772,9.99212 5.871367,11.16479 1.373889,0.41136 85.3448,0.84515 85.33803,0.44111 -0.001,-0.0773 -0.62144,-1.3606 -1.37808,-2.85195 -2.7159,-5.35292 -2.41793,-11.22815 0.82946,-16.34874 l 1.65175,-2.60371 z m -35.904543,5.49085 h 66.612749 c 0.62429,0 1.12723,0.5023 1.12723,1.12658 0,0.62429 -0.50294,1.12723 -1.12723,1.12723 H 35.903021 c -0.624286,0 -1.127229,-0.50294 -1.127229,-1.12723 0,-0.62428 0.502943,-1.12658 1.127229,-1.12658 z m 0,4.10624 h 66.612749 c 0.62429,0 1.12723,0.50294 1.12723,1.12723 0,0.62429 -0.50294,1.12658 -1.12723,1.12658 H 35.903021 c -0.624286,0 -1.127229,-0.50229 -1.127229,-1.12658 0,-0.62429 0.502943,-1.12723 1.127229,-1.12723 z m 0,4.10625 h 66.612749 c 0.62429,0 1.12723,0.50228 1.12723,1.12657 0,0.62429 -0.50294,1.12724 -1.12723,1.12724 H 35.903021 c -0.624286,0 -1.127229,-0.50295 -1.127229,-1.12724 0,-0.62429 0.502943,-1.12657 1.127229,-1.12657 z"
       sodipodi:nodetypes="cccccscscsssccsccsssssscccsssssssscssssssssssssssscssccccssssssssssssssssssssss" /></g></svg>
