<?xml version="1.0" encoding="UTF-8" standalone="no"?>
<!-- Created with Inkscape (http://www.inkscape.org/) -->

<svg
   width="1700"
   height="512"
   viewBox="0 0 449.79161 135.46665"
   version="1.1"
   id="svg5"
   xml:space="preserve"
   inkscape:version="1.2.2 (b0a8486541, 2022-12-01)"
   sodipodi:docname="RRR_logo_wordmark.svg"
   inkscape:export-filename="RRR_logo_wordmark_256.png"
   inkscape:export-xdpi="48"
   inkscape:export-ydpi="48"
   xmlns:inkscape="http://www.inkscape.org/namespaces/inkscape"
   xmlns:sodipodi="http://sodipodi.sourceforge.net/DTD/sodipodi-0.dtd"
   xmlns:xlink="http://www.w3.org/1999/xlink"
   xmlns="http://www.w3.org/2000/svg"
   xmlns:svg="http://www.w3.org/2000/svg"><sodipodi:namedview
     id="namedview7"
     pagecolor="#ffffff"
     bordercolor="#666666"
     borderopacity="1.0"
     inkscape:showpageshadow="2"
     inkscape:pageopacity="0.0"
     inkscape:pagecheckerboard="0"
     inkscape:deskcolor="#d1d1d1"
     inkscape:document-units="mm"
     showgrid="false"
     inkscape:zoom="0.36124088"
     inkscape:cx="491.36189"
     inkscape:cy="710.05254"
     inkscape:window-width="1840"
     inkscape:window-height="1011"
     inkscape:window-x="0"
     inkscape:window-y="0"
     inkscape:window-maximized="1"
     inkscape:current-layer="layer1" /><defs
     id="defs2"><linearGradient
       inkscape:collect="always"
       id="linearGradient1183"><stop
         style="stop-color:#6699ff;stop-opacity:1;"
         offset="0"
         id="stop1179" /><stop
         style="stop-color:#1d3972;stop-opacity:1;"
         offset="1"
         id="stop1181" /></linearGradient><linearGradient
       inkscape:collect="always"
       xlink:href="#linearGradient1183"
       id="linearGradient3504"
       x1="32.837894"
       y1="105.02975"
       x2="332.37485"
       y2="31.345169"
       gradientUnits="userSpaceOnUse"
       gradientTransform="matrix(1.26088,0,0,1.26088,-11.703431,-18.482497)" /></defs><g
     inkscape:label="Laag 1"
     inkscape:groupmode="layer"
     id="layer1"><path
       id="path3524"
       style="fill:url(#linearGradient3504);fill-opacity:1;stroke:none;stroke-width:0.352777;-inkscape-stroke:none;stop-color:#000000"
       d="m 217.18597,11.453306 -29.176,74.979919 h 9.51622 l 8.88886,-23.110734 h 29.59457 l 8.99325,23.110734 h 9.72551 L 225.65677,11.453306 Z M 46.193302,11.453823 V 55.34365 99.233994 H 83.89436 121.5949 V 57.077911 c 0,-23.185721 -0.15771,-42.566671 -0.34985,-43.067655 -0.96874,-2.524442 -1.47429,-2.556433 -39.29269,-2.556433 z m 86.915108,0.313159 v 74.666243 h 9.41183 v -30.84928 h 14.84922 l 18.09141,30.84928 h 10.9802 l -20.49642,-33.46359 c 2.50978,-0.90631 4.88028,-2.126484 7.11119,-3.660242 2.30067,-1.603471 4.18268,-3.72972 5.64669,-6.378939 1.46404,-2.649214 2.19625,-5.960969 2.19625,-9.934794 0,-7.111051 -2.23078,-12.409342 -6.69262,-15.895154 -4.39209,-3.555526 -11.22469,-5.333524 -20.49694,-5.333524 z m 131.86844,0 v 74.666243 h 42.03878 V 78.067328 H 274.38816 V 11.766982 Z m 54.79717,0 V 86.433225 H 361.8128 V 78.067328 H 329.18533 V 11.766982 Z m 41.51581,0 24.88892,46.117598 v 28.548645 h 9.41132 V 57.466001 l 24.88892,-45.699019 h -10.14357 l -19.45101,36.70577 -19.34611,-36.70577 z m -319.057527,0.24908 c -3.608367,0 -9.816771,5.815705 -11.764139,11.020516 -1.124984,3.006765 -1.155485,4.126126 -1.155485,42.171586 v 39.082886 l 2.545064,-1.94304 c 1.399943,-1.06859 3.489343,-2.20512 4.642611,-2.525417 1.153267,-0.32029 3.172808,-0.58325 4.488098,-0.584981 l 2.391068,-0.0021 V 55.625287 c 0,-43.517354 -0.0018,-43.609225 -1.147217,-43.609225 z M 142.52024,19.92359 h 10.66653 c 6.13505,0 10.66644,1.045789 13.59452,3.137276 2.92806,2.021769 4.39198,5.472722 4.39198,10.352856 0,4.670988 -1.39404,8.226982 -4.18269,10.66705 -2.78864,2.37035 -7.21554,3.555338 -13.28084,3.555338 h -11.1895 z m 78.74455,1.25522 c 0.27886,0.836594 0.6271,2.056768 1.04541,3.660242 0.48802,1.533755 0.97598,3.032326 1.464,4.496366 0.48801,1.464042 0.83681,2.475162 1.04593,3.03289 l 8.36589,22.587769 h -23.6337 l 8.47029,-22.587769 c 0.41831,-1.185174 0.94147,-2.78879 1.5689,-4.810559 0.62745,-2.091486 1.18527,-4.217735 1.67328,-6.378939 z M 83.778605,21.345725 c 13.193207,0 23.998535,10.194086 23.998535,22.831165 0,3.431166 -1.50184,7.709665 -3.64422,12.469006 -2.14239,4.759342 -4.970503,9.931014 -7.794875,14.72675 -5.648742,9.591475 -11.291301,17.691426 -11.291301,17.691426 l -1.268139,1.824695 -1.270207,-1.824695 c 0,0 -5.640492,-8.09995 -11.289233,-17.691426 -2.824373,-4.795736 -5.65456,-9.967408 -7.79694,-14.72675 -2.14238,-4.759341 -3.644222,-9.03784 -3.644222,-12.469006 0,-12.637077 10.807392,-22.831164 24.000602,-22.831165 z m 0,3.093351 c -11.608682,1e-6 -20.907768,8.864069 -20.907768,19.737814 0,2.446539 1.30365,6.607375 3.37137,11.200866 2.067723,4.593487 4.852809,9.690139 7.641911,14.425993 4.943954,8.394752 8.832858,13.963281 9.894487,15.504997 1.062058,-1.542346 4.951365,-7.110781 9.895003,-15.504997 2.789103,-4.735854 5.571601,-9.832506 7.639322,-14.425993 2.06773,-4.593491 3.37344,-8.754327 3.37344,-11.200866 0,-10.873746 -9.299083,-19.737814 -20.907765,-19.737814 z m 0,7.681185 c 6.91583,0 12.633854,5.370158 12.633854,12.056629 0,6.686471 -5.718024,12.057662 -12.633854,12.057662 -6.915833,2e-6 -12.635921,-5.371191 -12.635921,-12.057662 0,-6.686471 5.720088,-12.056629 12.635921,-12.056629 z m 0,3.093352 c -5.331305,0 -9.543087,4.040138 -9.543087,8.963277 0,4.92314 4.211782,8.964827 9.543087,8.964827 5.331305,0 9.540503,-4.041687 9.540503,-8.964827 0,-4.923139 -4.209198,-8.963277 -9.540503,-8.963277 z m 77.197355,66.462607 c -2.26914,0 -4.15311,0.4664 -5.65237,1.39836 -1.47898,0.93197 -2.58309,2.22835 -3.31246,3.88969 -0.72935,1.66133 -1.09399,3.60618 -1.09399,5.83478 0,2.24888 0.36464,4.21417 1.09399,5.89577 0.72937,1.68159 1.83348,2.98872 3.31246,3.92069 1.49926,0.93197 3.37302,1.39785 5.62188,1.39785 2.18811,0 4.02197,-0.46588 5.50096,-1.39785 1.47899,-0.93197 2.59332,-2.22886 3.34295,-3.8902 0.76988,-1.68159 1.15497,-3.64689 1.15497,-5.89577 0,-2.24886 -0.38509,-4.20394 -1.15497,-5.86527 -0.74963,-1.6816 -1.86396,-2.97798 -3.34295,-3.88969 -1.47899,-0.93196 -3.30263,-1.39836 -5.47047,-1.39836 z m 84.48528,0 c -2.26912,0 -4.15362,0.4664 -5.65288,1.39836 -1.47899,0.93197 -2.58309,2.22835 -3.31246,3.88969 -0.72937,1.66133 -1.09399,3.60618 -1.09399,5.83478 0,2.24888 0.36462,4.21417 1.09399,5.89577 0.72937,1.68159 1.83347,2.98872 3.31246,3.92069 1.49926,0.93197 3.37352,1.39785 5.6224,1.39785 2.18808,0 4.02145,-0.46588 5.50043,-1.39785 1.479,-0.93197 2.59332,-2.22886 3.34295,-3.8902 0.76988,-1.68159 1.15497,-3.64689 1.15497,-5.89577 0,-2.24886 -0.38509,-4.20394 -1.15497,-5.86527 -0.74963,-1.6816 -1.86395,-2.97798 -3.34295,-3.88969 -1.47898,-0.93196 -3.30211,-1.39836 -5.46995,-1.39836 z m 23.73447,0 c -2.26912,0 -4.15311,0.4664 -5.65237,1.39836 -1.47898,0.93197 -2.58311,2.22835 -3.31245,3.88969 -0.72937,1.66133 -1.09399,3.60618 -1.09399,5.83478 0,2.24888 0.36462,4.21417 1.09399,5.89577 0.72934,1.68159 1.83347,2.98872 3.31245,3.92069 1.49926,0.93197 3.37352,1.39785 5.6224,1.39785 2.1881,0 4.02145,-0.46588 5.50044,-1.39785 1.479,-0.93197 2.59333,-2.22886 3.34295,-3.8902 0.76989,-1.68159 1.15497,-3.64689 1.15497,-5.89577 0,-2.24886 -0.38508,-4.20394 -1.15497,-5.86527 -0.74962,-1.6816 -1.86395,-2.97798 -3.34295,-3.88969 -1.47899,-0.93196 -3.30263,-1.39836 -5.47047,-1.39836 z m -88.52689,0.2434 -8.47856,21.78988 h 2.76521 l 2.58331,-6.71639 h 8.6005 l 2.6138,6.71639 h 2.82618 l -8.44858,-21.78988 z m 171.34044,0 -8.47855,21.78988 h 2.76521 l 2.5833,-6.71639 h 8.60051 l 2.61328,6.71639 h 2.8267 l -8.44858,-21.78988 z m -218.90085,0.0909 v 21.69893 h 2.73472 v -8.96534 h 4.3155 l 5.25756,8.96534 h 3.19102 l -5.95623,-9.72499 c 0.72937,-0.26338 1.41822,-0.61777 2.06654,-1.0635 0.66859,-0.46598 1.21526,-1.08426 1.64073,-1.85415 0.42546,-0.76989 0.6382,-1.73234 0.6382,-2.88716 0,-2.06654 -0.64794,-3.60584 -1.94458,-4.61884 -1.27639,-1.03327 -3.26215,-1.55029 -5.95674,-1.55029 z m 61.44896,0 v 21.69893 h 6.0477 c 3.56578,0 6.34164,-0.92205 8.32714,-2.76572 2.00576,-1.86394 3.0086,-4.62957 3.0086,-8.29665 0,-2.32992 -0.43571,-4.27476 -1.3069,-5.83479 -0.87119,-1.5803 -2.10723,-2.77542 -3.70778,-3.58583 -1.60055,-0.8104 -3.49476,-1.21594 -5.68286,-1.21594 z m 22.1847,0 v 21.69893 h 7.62796 c 2.3299,0 4.16378,-0.53697 5.50095,-1.61075 1.35744,-1.07379 2.03605,-2.59314 2.03605,-4.55838 0,-1.13457 -0.21273,-2.05662 -0.6382,-2.76573 -0.42547,-0.70909 -1.01306,-1.2563 -1.76268,-1.64124 -0.72938,-0.38495 -1.54965,-0.64831 -2.46135,-0.79013 v -0.15193 c 1.33716,-0.24313 2.35995,-0.7801 3.06906,-1.61075 0.70911,-0.85093 1.06402,-1.91464 1.06402,-3.19102 0,-1.9855 -0.69908,-3.37291 -2.09703,-4.16306 -1.37769,-0.8104 -3.4243,-1.21594 -6.13916,-1.21594 z m 67.22328,0 v 21.69893 h 2.73524 v -8.41809 l 2.21847,-1.9451 7.68893,10.36319 h 3.22151 l -8.93485,-12.24731 8.60051,-9.45162 h -3.19102 l -5.86528,6.56445 c -0.62807,0.68885 -1.25606,1.3777 -1.88412,2.06654 -0.62806,0.68885 -1.24634,1.3777 -1.85415,2.06654 v -10.69753 z m 26.7131,0 v 21.69893 h 2.73524 v -8.96534 h 4.31549 l 5.25756,8.96534 h 3.19102 l -5.95674,-9.72499 c 0.72937,-0.26338 1.41822,-0.61777 2.06654,-1.0635 0.6686,-0.46598 1.21578,-1.08426 1.64125,-1.85415 0.42545,-0.76989 0.6382,-1.73234 0.6382,-2.88716 0,-2.06654 -0.64845,-3.60584 -1.9451,-4.61884 -1.27638,-1.03327 -3.26162,-1.55029 -5.95623,-1.55029 z m 18.90272,0 v 21.69893 h 12.12588 v -2.40089 h -9.39064 v -7.74939 h 8.8439 v -2.3704 h -8.8439 v -6.77737 h 9.39064 v -2.40088 z m 36.31665,0 v 21.69893 h 6.04769 c 3.5658,0 6.34114,-0.92205 8.32663,-2.76572 2.00574,-1.86394 3.00912,-4.62957 3.00912,-8.29665 0,-2.32992 -0.43572,-4.27476 -1.3069,-5.83479 -0.87119,-1.5803 -2.10723,-2.77542 -3.70779,-3.58583 -1.60054,-0.8104 -3.49475,-1.21594 -5.68285,-1.21594 z m 22.18469,0 v 21.69893 h 12.12588 v -2.40089 h -9.39064 v -7.74939 h 8.84338 v -2.3704 h -8.84338 v -6.77737 h 9.39064 v -2.40088 z m 16.89716,0 v 21.69893 h 2.73524 v -8.96534 h 4.3155 l 5.25704,8.96534 h 3.19102 l -5.95623,-9.72499 c 0.72936,-0.26338 1.41822,-0.61777 2.06654,-1.0635 0.66859,-0.46598 1.21578,-1.08426 1.64125,-1.85415 0.42546,-0.76989 0.6382,-1.73234 0.6382,-2.88716 0,-2.06654 -0.64845,-3.60584 -1.9451,-4.61884 -1.2764,-1.03327 -3.26216,-1.55029 -5.95674,-1.55029 z m -326.828629,0.0372 c -40.228096,0 -40.628618,0.009 -43.071273,1.19373 -3.418802,1.65504 -5.354186,4.73235 -5.66322,9.00462 -0.398978,5.51578 1.954369,9.99202 5.87096,11.16469 1.373887,0.41136 85.345232,0.84536 85.338462,0.44132 -10e-4,-0.0773 -0.62157,-1.36068 -1.37821,-2.85203 -2.7159,-5.35291 -2.41798,-11.22828 0.82941,-16.34887 l 1.65158,-2.60346 z m 82.824919,2.02934 c 2.45148,0 4.24443,0.78039 5.379,2.34042 1.13457,1.53977 1.70222,3.6769 1.70222,6.41201 0,2.73513 -0.56765,4.89321 -1.70222,6.47351 -1.13457,1.56003 -2.93774,2.33991 -5.40949,2.33991 -2.45146,0 -4.25414,-0.77988 -5.40897,-2.33991 -1.15483,-1.5803 -1.73271,-3.73838 -1.73271,-6.47351 0,-2.73511 0.57788,-4.87224 1.73271,-6.41201 1.17509,-1.56003 2.98798,-2.34042 5.43946,-2.34042 z m 84.48528,0 c 2.45149,0 4.24444,0.78039 5.379,2.34042 1.13458,1.53977 1.70171,3.6769 1.70171,6.41201 0,2.73513 -0.56713,4.89321 -1.70171,6.47351 -1.13456,1.56003 -2.93776,2.33991 -5.40948,2.33991 -2.45149,0 -4.25466,-0.77988 -5.40949,-2.33991 -1.15483,-1.5803 -1.7322,-3.73838 -1.7322,-6.47351 0,-2.73511 0.57737,-4.87224 1.7322,-6.41201 1.1751,-1.56003 2.98851,-2.34042 5.43997,-2.34042 z m 23.73447,0 c 2.45148,0 4.24495,0.78039 5.37952,2.34042 1.13456,1.53977 1.7017,3.6769 1.7017,6.41201 0,2.73513 -0.56714,4.89321 -1.7017,6.47351 -1.13457,1.56003 -2.93775,2.33991 -5.40949,2.33991 -2.45148,0 -4.25466,-0.77988 -5.40949,-2.33991 -1.15483,-1.5803 -1.73271,-3.73838 -1.73271,-6.47351 0,-2.73511 0.57788,-4.87224 1.73271,-6.41201 1.17509,-1.56003 2.98799,-2.34042 5.43946,-2.34042 z m -71.9031,0.27388 h 3.55534 c 2.61354,0 4.62948,0.67862 6.04769,2.03605 1.43847,1.33718 2.15801,3.45436 2.15801,6.35155 0,5.7539 -2.93797,8.631 -8.81342,8.631 h -2.94762 z m 22.18469,0 h 3.58634 c 1.84368,0 3.18047,0.26337 4.01113,0.79013 0.85093,0.50651 1.27641,1.35747 1.27641,2.55282 0,1.17509 -0.34417,2.06645 -1.03301,2.67426 -0.68884,0.58753 -1.96529,0.88108 -3.82923,0.88108 h -4.01164 z m 149.15575,0 h 3.55534 c 2.61357,0 4.62949,0.67862 6.0477,2.03605 1.43846,1.33718 2.158,3.45436 2.158,6.35155 0,5.7539 -2.93797,8.631 -8.81341,8.631 h -2.94763 z m -232.78992,0.03 h 3.10007 c 1.7829,0 3.09974,0.30429 3.95066,0.91209 0.85093,0.58755 1.27641,1.5904 1.27641,3.0086 0,1.35744 -0.40502,2.39045 -1.21543,3.09956 -0.81041,0.68884 -2.09708,1.03353 -3.85971,1.03353 h -3.252 z m 177.57056,0 h 3.10006 c 1.7829,0 3.09974,0.30429 3.95067,0.91209 0.85092,0.58755 1.27641,1.5904 1.27641,3.0086 0,1.35744 -0.40554,2.39045 -1.21595,3.09956 -0.81041,0.68884 -2.09656,1.03353 -3.8592,1.03353 h -3.25199 z m 94.30122,0 h 3.09955 c 1.78288,0 3.09973,0.30429 3.95066,0.91209 0.85093,0.58755 1.27641,1.5904 1.27641,3.0086 0,1.35744 -0.40502,2.39045 -1.21543,3.09956 -0.81042,0.68884 -2.09708,1.03353 -3.85971,1.03353 h -3.25148 z m -225.86064,0.36484 c 0.081,0.24312 0.1823,0.59751 0.30386,1.0635 0.14182,0.44572 0.28347,0.88143 0.4253,1.3069 0.1418,0.42546 0.24306,0.71952 0.30386,0.8816 l 2.43137,6.56394 h -6.86831 l 2.46186,-6.56394 c 0.12156,-0.34443 0.27344,-0.81082 0.45579,-1.39837 0.18234,-0.6078 0.34445,-1.22556 0.48627,-1.85363 z m 171.34045,0 c 0.0811,0.24312 0.1823,0.59751 0.30386,1.0635 0.14182,0.44572 0.28347,0.88143 0.42529,1.3069 0.14181,0.42546 0.24306,0.71952 0.30386,0.8816 l 2.43138,6.56394 h -6.86832 l 2.46187,-6.56394 c 0.12155,-0.34443 0.27344,-0.81082 0.45578,-1.39837 0.18234,-0.6078 0.34446,-1.22556 0.48628,-1.85363 z m -310.947947,2.79259 h 66.612477 c 0.62429,0 1.12706,0.50227 1.12706,1.12655 0,0.62429 -0.50277,1.12758 -1.12706,1.12758 H 42.246773 c -0.624286,0 -1.12758,-0.50329 -1.12758,-1.12758 0,-0.62428 0.503294,-1.12655 1.12758,-1.12655 z m 0,4.10621 h 66.612477 c 0.62429,0 1.12706,0.50329 1.12706,1.12758 0,0.62429 -0.50277,1.12655 -1.12706,1.12655 H 42.246773 c -0.624286,0 -1.12758,-0.50226 -1.12758,-1.12655 0,-0.62429 0.503294,-1.12758 1.12758,-1.12758 z m 177.230527,1.88413 h 4.16357 c 2.00575,0 3.39368,0.35439 4.16357,1.0635 0.79015,0.68884 1.18494,1.60066 1.18494,2.73523 0,1.21561 -0.37485,2.198 -1.12448,2.94762 -0.74962,0.74964 -2.0864,1.12448 -4.01112,1.12448 h -4.37648 z m -177.230527,2.22208 h 66.612477 c 0.62429,0 1.12706,0.50226 1.12706,1.12655 0,0.62429 -0.50277,1.12758 -1.12706,1.12758 H 42.246773 c -0.624286,0 -1.12758,-0.50329 -1.12758,-1.12758 0,-0.62429 0.503294,-1.12655 1.12758,-1.12655 z" /></g></svg>
